<svg width="16" height="15" viewBox="0 0 16 15" fill="none" xmlns="http://www.w3.org/2000/svg">
<path d="M7.86876 10.7708C7.88435 10.7908 7.90427 10.8069 7.92701 10.818C7.94975 10.829 7.97471 10.8348 8.00001 10.8348C8.02531 10.8348 8.05027 10.829 8.07301 10.818C8.09575 10.8069 8.11567 10.7908 8.13126 10.7708L10.4646 7.81876C10.55 7.71043 10.4729 7.55001 10.3333 7.55001H8.78959V0.50001C8.78959 0.408344 8.71459 0.333344 8.62293 0.333344H7.37293C7.28126 0.333344 7.20626 0.408344 7.20626 0.50001V7.54793H5.66668C5.52709 7.54793 5.45001 7.70834 5.53543 7.81668L7.86876 10.7708ZM15.625 10.0417H14.375C14.2833 10.0417 14.2083 10.1167 14.2083 10.2083V13.4167H1.79168V10.2083C1.79168 10.1167 1.71668 10.0417 1.62501 10.0417H0.37501C0.283344 10.0417 0.208344 10.1167 0.208344 10.2083V14.3333C0.208344 14.7021 0.50626 15 0.87501 15H15.125C15.4938 15 15.7917 14.7021 15.7917 14.3333V10.2083C15.7917 10.1167 15.7167 10.0417 15.625 10.0417Z" fill="white"/>
</svg>
