<svg width="20" height="20" viewBox="0 0 20 20" fill="none" xmlns="http://www.w3.org/2000/svg">
<path d="M10 1.875C5.51988 1.875 1.875 5.51988 1.875 10C1.875 14.4801 5.51988 18.125 10 18.125C14.4801 18.125 18.125 14.4801 18.125 10C18.125 5.51988 14.4801 1.875 10 1.875ZM10 16.5C6.41606 16.5 3.5 13.5839 3.5 10C3.5 6.41606 6.41606 3.5 10 3.5C13.5839 3.5 16.5 6.41606 16.5 10C16.5 13.5839 13.5839 16.5 10 16.5Z" fill="white"/>
<path d="M7.5625 14.0625L14.0625 10L7.5625 5.9375V14.0625Z" fill="white"/>
</svg>
