<svg width="17" height="28" viewBox="0 0 17 28" fill="none" xmlns="http://www.w3.org/2000/svg">
<path d="M15.375 12.5209L3.58332 0.750036C3.38964 0.554768 3.15922 0.39978 2.90535 0.294012C2.65148 0.188244 2.37917 0.133789 2.10415 0.133789C1.82912 0.133789 1.55682 0.188244 1.30295 0.294012C1.04907 0.39978 0.818655 0.554768 0.624983 0.750036C0.23696 1.14037 0.019165 1.6684 0.019165 2.21879C0.019165 2.76917 0.23696 3.2972 0.624983 3.68754L10.9375 14.1042L0.624983 24.4167C0.23696 24.807 0.019165 25.3351 0.019165 25.8855C0.019165 26.4358 0.23696 26.9639 0.624983 27.3542C0.81793 27.5511 1.04802 27.7077 1.30193 27.8149C1.55584 27.9222 1.82851 27.9781 2.10415 27.9792C2.37979 27.9781 2.65246 27.9222 2.90637 27.8149C3.16027 27.7077 3.39037 27.5511 3.58332 27.3542L15.375 15.5834C15.5864 15.3883 15.7552 15.1515 15.8706 14.888C15.9861 14.6244 16.0457 14.3398 16.0457 14.0521C16.0457 13.7644 15.9861 13.4798 15.8706 13.2163C15.7552 12.9527 15.5864 12.716 15.375 12.5209Z" fill="white"/>
</svg>
