<svg width="26" height="26" viewBox="0 0 26 26" fill="none" xmlns="http://www.w3.org/2000/svg">
<path d="M24.4094 4.45937L21.0812 1.13438C20.675 0.728125 20.1313 0.5 19.5562 0.5C18.9812 0.5 18.4375 0.725 18.0312 1.13438L14.4469 4.7125C14.0406 5.11875 13.8125 5.66563 13.8125 6.24063C13.8125 6.81875 14.0375 7.35938 14.4469 7.76875L17.2469 10.5719C16.609 12.0581 15.6925 13.4084 14.5469 14.55C13.4 15.7031 12.0594 16.6125 10.5719 17.2563L7.77188 14.4531C7.36563 14.0469 6.82187 13.8188 6.24687 13.8188C5.96326 13.8177 5.68229 13.8733 5.42042 13.9822C5.15856 14.0911 4.92107 14.2512 4.72188 14.4531L1.13438 18.0312C0.728125 18.4375 0.5 18.9844 0.5 19.5594C0.5 20.1375 0.725 20.6781 1.13438 21.0875L4.45937 24.4125C5.15312 25.1063 6.10938 25.5031 7.09062 25.5031C7.29375 25.5031 7.49063 25.4875 7.69063 25.4531C11.8281 24.7719 15.9344 22.5688 19.25 19.2563C22.5625 15.9375 24.7625 11.8313 25.45 7.69063C25.6469 6.51562 25.2531 5.30625 24.4094 4.45937ZM23.2344 7.31875C22.625 11.0031 20.6437 14.6781 17.6594 17.6625C14.675 20.6469 11.0031 22.6281 7.31875 23.2375C6.85625 23.3156 6.38125 23.1594 6.04375 22.825L2.77812 19.5594L6.24063 16.0938L9.98438 19.8438L10.0125 19.8719L10.6875 19.6219C12.7341 18.8694 14.5927 17.6809 16.1343 16.1387C17.676 14.5965 18.8639 12.7375 19.6156 10.6906L19.8656 10.0156L16.0906 6.24375L19.5531 2.77812L22.8188 6.04375C23.1562 6.38125 23.3125 6.85625 23.2344 7.31875Z" fill="white"/>
</svg>
