<svg width="32" height="32" viewBox="0 0 32 32" fill="none" xmlns="http://www.w3.org/2000/svg">
<path d="M15.9987 9.83594C14.3635 9.83594 12.7954 10.4855 11.6391 11.6417C10.4829 12.7979 9.83334 14.3661 9.83334 16.0013C9.83334 17.6364 10.4829 19.2046 11.6391 20.3608C12.7954 21.517 14.3635 22.1666 15.9987 22.1666C17.6338 22.1666 19.202 21.517 20.3582 20.3608C21.5145 19.2046 22.164 17.6364 22.164 16.0013C22.164 14.3661 21.5145 12.7979 20.3582 11.6417C19.202 10.4855 17.6338 9.83594 15.9987 9.83594ZM15.9987 20.0053C14.9364 20.0053 13.9176 19.5833 13.1665 18.8321C12.4153 18.081 11.9933 17.0622 11.9933 15.9999C11.9933 14.9377 12.4153 13.9189 13.1665 13.1677C13.9176 12.4166 14.9364 11.9946 15.9987 11.9946C17.061 11.9946 18.0797 12.4166 18.8309 13.1677C19.582 13.9189 20.004 14.9377 20.004 15.9999C20.004 17.0622 19.582 18.081 18.8309 18.8321C18.0797 19.5833 17.061 20.0053 15.9987 20.0053Z" fill="white"/>
<path d="M22.408 11.0465C23.2018 11.0465 23.8453 10.403 23.8453 9.60921C23.8453 8.81539 23.2018 8.17188 22.408 8.17188C21.6142 8.17188 20.9707 8.81539 20.9707 9.60921C20.9707 10.403 21.6142 11.0465 22.408 11.0465Z" fill="white"/>
<path d="M27.3773 8.14792C27.0687 7.35083 26.597 6.62697 25.9924 6.02267C25.3879 5.41837 24.6639 4.94695 23.8667 4.63859C22.9338 4.2884 21.9482 4.09905 20.952 4.07859C19.668 4.02259 19.2613 4.00659 16.0053 4.00659C12.7493 4.00659 12.332 4.00659 11.0587 4.07859C10.0632 4.098 9.07833 4.28739 8.14666 4.63859C7.34924 4.94659 6.62501 5.41789 6.02043 6.02223C5.41586 6.62657 4.94429 7.35062 4.63599 8.14792C4.28573 9.08074 4.09681 10.0664 4.07732 11.0626C4.01999 12.3453 4.00266 12.7519 4.00266 16.0093C4.00266 19.2653 4.00266 19.6799 4.07732 20.9559C4.09732 21.9533 4.28532 22.9373 4.63599 23.8719C4.94516 24.6689 5.41718 25.3927 6.0219 25.997C6.62662 26.6012 7.35074 27.0727 8.14799 27.3813C9.0779 27.7455 10.0632 27.9484 11.0613 27.9813C12.3453 28.0373 12.752 28.0546 16.008 28.0546C19.264 28.0546 19.6813 28.0546 20.9547 27.9813C21.9508 27.961 22.9363 27.7721 23.8693 27.4226C24.6663 27.1135 25.3902 26.6417 25.9946 26.0372C26.5991 25.4328 27.0709 24.7089 27.38 23.9119C27.7307 22.9786 27.9187 21.9946 27.9387 20.9973C27.996 19.7146 28.0133 19.3079 28.0133 16.0506C28.0133 12.7933 28.0133 12.3799 27.9387 11.1039C27.9231 10.0936 27.7332 9.09359 27.3773 8.14792ZM25.7533 20.8573C25.7447 21.6257 25.6045 22.3869 25.3387 23.1079C25.1384 23.6264 24.8319 24.0973 24.4388 24.4902C24.0456 24.8831 23.5746 25.1893 23.056 25.3893C22.343 25.6539 21.5898 25.7941 20.8293 25.8039C19.5627 25.8626 19.2053 25.8773 15.9573 25.8773C12.7067 25.8773 12.3747 25.8773 11.084 25.8039C10.3239 25.7946 9.57109 25.6543 8.85865 25.3893C8.33824 25.1906 7.86532 24.8848 7.47051 24.4919C7.07569 24.0989 6.76777 23.6274 6.56666 23.1079C6.30458 22.3947 6.1644 21.6424 6.15199 20.8826C6.09465 19.6159 6.08132 19.2586 6.08132 16.0106C6.08132 12.7613 6.08132 12.4293 6.15199 11.1373C6.16061 10.3693 6.30086 9.60848 6.56666 8.88792C6.97332 7.83592 7.80666 7.00792 8.85865 6.60526C9.57144 6.34144 10.324 6.20121 11.084 6.19059C12.352 6.13326 12.708 6.11726 15.9573 6.11726C19.2067 6.11726 19.54 6.11726 20.8293 6.19059C21.5899 6.19974 22.3431 6.34002 23.056 6.60526C23.5746 6.80562 24.0455 7.11219 24.4386 7.5053C24.8317 7.8984 25.1383 8.36935 25.3387 8.88792C25.6007 9.60119 25.7409 10.3535 25.7533 11.1133C25.8107 12.3813 25.8253 12.7373 25.8253 15.9866C25.8253 19.2346 25.8253 19.5839 25.768 20.8586H25.7533V20.8573Z" fill="white"/>
</svg>
